HIERARCHY
ROOT Hips
{
 OFFSET 0.000000 0.000000 0.000000
 CHANNELS 6 Xposition Yposition Zposition Yrotation Xrotation Zrotation
 JOINT Chest
 {
  OFFSET 0.000000 9.585900 0.002600
  CHANNELS 3 Yrotation Xrotation Zrotation
  JOINT Chest2
  {
   OFFSET 0.000000 9.601200 -0.005300
   CHANNELS 3 Yrotation Xrotation Zrotation
   JOINT Chest3
   {
    OFFSET 0.000000 9.561800 0.000000
    CHANNELS 3 Yrotation Xrotation Zrotation
    JOINT Chest4
    {
     OFFSET 0.000000 9.552100 0.000000
     CHANNELS 3 Yrotation Xrotation Zrotation
     JOINT Neck
     {
      OFFSET 0.000000 14.453000 0.000000
      CHANNELS 3 Yrotation Xrotation Zrotation
      JOINT Head
      {
       OFFSET 0.000000 8.936500 -0.011300
       CHANNELS 3 Yrotation Xrotation Zrotation
       End Site
       {
        OFFSET 0.000000 17.073600 -0.006000
       }
      }
     }
     JOINT RightCollar
     {
      OFFSET -2.921100 9.558500 0.000000
      CHANNELS 3 Yrotation Xrotation Zrotation
      JOINT RightShoulder
      {
       OFFSET -13.519700 0.000000 0.000000
       CHANNELS 3 Yrotation Xrotation Zrotation
       JOINT RightElbow
       {
        OFFSET 0.000000 -29.696600 0.000000
        CHANNELS 3 Yrotation Xrotation Zrotation
        JOINT RightWrist
        {
         OFFSET 0.000000 -24.004700 0.000000
         CHANNELS 3 Yrotation Xrotation Zrotation
         End Site
         {
          OFFSET 0.000000 -17.728500 0.000000
         }
        }
       }
      }
     }
     JOINT LeftCollar
     {
      OFFSET 2.921100 9.558500 0.000000
      CHANNELS 3 Yrotation Xrotation Zrotation
      JOINT LeftShoulder
      {
       OFFSET 13.519700 0.000000 0.000000
       CHANNELS 3 Yrotation Xrotation Zrotation
       JOINT LeftElbow
       {
        OFFSET 0.000000 -29.696600 0.000000
        CHANNELS 3 Yrotation Xrotation Zrotation
        JOINT LeftWrist
        {
         OFFSET 0.000000 -24.004700 0.000000
         CHANNELS 3 Yrotation Xrotation Zrotation
         End Site
         {
          OFFSET 0.000000 -17.728500 0.000000
         }
        }
       }
      }
     }
    }
   }
  }
 }
 JOINT RightHip
 {
  OFFSET -7.771700 -0.012900 -0.001300
  CHANNELS 3 Yrotation Xrotation Zrotation
  JOINT RightKnee
  {
   OFFSET 0.000000 -40.869800 0.001200
   CHANNELS 3 Yrotation Xrotation Zrotation
   JOINT RightAnkle
   {
    OFFSET 0.000000 -39.717900 0.002100
    CHANNELS 3 Yrotation Xrotation Zrotation
    JOINT RightToe
    {
     OFFSET 0.000000 -4.965400 11.033500
     CHANNELS 3 Yrotation Xrotation Zrotation
     End Site
     {
      OFFSET 0.000000 -1.423100 5.872300
     }
    }
   }
  }
 }
 JOINT LeftHip
 {
  OFFSET 7.771700 -0.012900 -0.001300
  CHANNELS 3 Yrotation Xrotation Zrotation
  JOINT LeftKnee
  {
   OFFSET 0.000000 -40.869800 0.001200
   CHANNELS 3 Yrotation Xrotation Zrotation
   JOINT LeftAnkle
   {
    OFFSET 0.000000 -39.717900 0.002100
    CHANNELS 3 Yrotation Xrotation Zrotation
    JOINT LeftToe
    {
     OFFSET 0.000000 -4.965400 11.033500
     CHANNELS 3 Yrotation Xrotation Zrotation
     End Site
     {
      OFFSET 0.000000 -1.423100 5.872300
     }
    }
   }
  }
 }
}
MOTION
Frames: 16
Frame Time: 0.008333
0.000000 85.388000 0.000000 0.000000 -5.767877 0.000000 0.000000 11.653817 0.000000 0.000000 -5.885947 0.000000 0.000000 -0.000000 0.000000 0.000000 -0.000000 0.000000 0.000000 12.528835 0.000000 0.000000 0.711642 0.000000 0.000000 -0.000000 0.000000 0.000000 0.000000 -90.000000 0.000000 -2.309062 0.000000 0.000000 2.309062 0.000000 0.000000 -0.000000 0.000000 0.000000 -0.000000 90.000000 0.000000 -2.309062 0.000000 0.000000 2.309062 0.000000 0.000000 8.520406 0.000000 0.000000 1.905762 0.000000 -0.000000 -4.658285 0.000000 0.000000 -0.000000 0.000000 0.000000 8.520406 0.000000 0.000000 1.905762 0.000000 -0.000000 -4.658285 0.000000 0.000000 -0.000000 0.000000
-11.060705 55.766106 21.959580 -173.062923 -29.224938 -9.421348 -1.310784 11.370305 4.060321 -0.703107 6.494314 1.942537 -0.875640 8.148464 2.417261 -0.698633 6.474651 1.940415 6.622573 18.704483 2.589566 6.575164 -5.815931 1.256102 5.557925 -0.054787 -4.910713 -14.635783 -40.223832 -4.653602 -43.036879 -79.115856 48.615588 4.597640 -6.420575 -45.930643 -9.035099 0.726627 -2.231141 4.261776 -1.100020 0.940898 -133.306265 -65.366640 125.315161 10.858574 -8.250498 -6.449177 -20.203380 -35.706362 5.225393 15.914266 88.350236 13.846884 2.319160 -19.822528 -1.654533 -0.019451 0.543326 -0.003228 -12.444925 -47.712947 9.622823 -176.761113 81.194174 176.964984 -2.909045 -17.957050 5.518616 -0.026662 -0.536867 -0.023075
-11.067967 55.764124 21.956791 -173.090949 -29.243977 -9.416366 -1.293433 11.389252 4.065598 -0.738170 6.528642 1.934141 -0.832432 8.120436 2.421689 -0.713353 6.508716 1.940971 6.602181 18.788551 2.579524 6.558598 -5.729873 1.251833 5.510917 0.022892 -4.883237 -14.525661 -40.010249 -4.719482 -42.892492 -79.244076 48.606522 4.651840 -6.295083 -45.685595 -9.058057 0.749145 -2.245127 4.276279 -1.095588 0.943836 -133.235124 -65.344212 125.282172 10.852522 -8.286211 -6.455663 -20.149013 -35.692827 5.244072 15.320397 88.353493 13.242861 2.264692 -19.824461 -1.614904 -0.035417 0.543956 -0.002678 -12.409569 -47.696926 9.631553 -176.655067 81.183384 177.058093 -2.913990 -17.962137 5.543124 -0.024046 -0.538325 -0.020255
-11.077785 55.762180 21.953586 -173.114846 -29.267682 -9.411946 -1.294670 11.417592 4.060217 -0.733903 6.541875 1.936369 -0.831898 8.137178 2.418251 -0.711077 6.522206 1.940301 6.582228 18.872262 2.574314 6.539805 -5.641771 1.248919 5.463112 0.095518 -4.855655 -14.413343 -39.779929 -4.771471 -42.579648 -79.405497 48.422389 4.716493 -6.129911 -45.344163 -9.076135 0.767518 -2.255452 4.298049 -1.090751 0.943215 -133.254219 -65.298196 125.329969 10.800333 -8.186164 -6.521651 -20.091474 -35.675625 5.257005 14.762451 88.356753 12.671936 2.218083 -19.823332 -1.574894 -0.024932 0.543594 0.003770 -12.367130 -47.675889 9.629953 -176.591378 81.172769 177.110972 -2.922255 -17.971417 5.569940 -0.021346 -0.535889 -0.018029
-11.089856 55.760581 21.950069 -173.133430 -29.296471 -9.410539 -1.295426 11.450606 4.060311 -0.732611 6.553335 1.934713 -0.844662 8.178796 2.415098 -0.696402 6.519445 1.939496 6.556045 18.951222 2.565500 6.516559 -5.553361 1.246874 5.410088 0.158538 -4.834912 -14.312452 -39.529467 -4.803933 -42.063090 -79.591930 48.045027 4.788883 -5.923535 -44.920971 -9.091667 0.784199 -2.267083 4.328466 -1.089789 0.939177 -133.213440 -65.288266 125.301978 10.763767 -8.148762 -6.589518 -20.025010 -35.652881 5.248562 14.332486 88.357202 12.245551 2.198091 -19.821586 -1.551658 -0.029274 0.543058 0.010780 -12.318975 -47.650580 9.620999 -176.543978 81.161473 177.150690 -2.930812 -17.978958 5.594670 -0.020858 -0.538034 -0.012483
-11.104043 55.759348 21.946727 -173.149067 -29.328521 -9.411216 -1.298110 11.481095 4.061678 -0.728763 6.568931 1.930830 -0.838055 8.183228 2.416887 -0.711652 6.554701 1.937048 6.530758 19.026890 2.552856 6.484007 -5.468761 1.245493 5.355512 0.217924 -4.815639 -14.233587 -39.260245 -4.817979 -41.405206 -79.783803 47.552929 4.870029 -5.671428 -44.425049 -9.097577 0.808345 -2.277988 4.361360 -1.094144 0.933089 -133.195589 -65.294823 125.283136 10.730078 -8.125223 -6.644477 -19.963082 -35.626005 5.237487 13.991704 88.357062 11.905255 2.183337 -19.817700 -1.522448 -0.021389 0.542252 0.010267 -12.275827 -47.621537 9.611953 -176.492782 81.150522 177.191103 -2.933710 -17.985445 5.616897 -0.023389 -0.541223 -0.004923
-11.120832 55.758401 21.943953 -173.165144 -29.362729 -9.408701 -1.294543 11.511577 4.059579 -0.728725 6.585762 1.926933 -0.853748 8.239156 2.407908 -0.694524 6.535242 1.941500 6.492047 19.102588 2.540358 6.440927 -5.390496 1.243228 5.286870 0.282654 -4.791365 -14.180621 -38.977443 -4.820236 -40.741767 -79.960214 47.088518 4.952856 -5.379387 -43.870075 -9.109226 0.844851 -2.285363 4.391032 -1.104583 0.928399 -133.221761 -65.302982 125.301205 10.701287 -8.077888 -6.691638 -19.892688 -35.598638 5.255515 13.397348 88.354769 11.260868 2.172848 -19.810302 -1.460853 -0.074036 0.539233 0.016465 -12.244932 -47.588720 9.605391 -176.435059 81.141424 177.228440 -2.934708 -17.991705 5.639476 -0.021080 -0.541913 -0.000397
-11.139108 55.757984 21.941770 -173.178498 -29.398940 -9.410710 -1.294954 11.544752 4.057303 -0.723977 6.601951 1.925097 -0.845182 8.243878 2.410482 -0.712105 6.611052 1.929302 6.453606 19.130849 2.526142 6.388219 -5.317004 1.239442 5.226285 0.307231 -4.763618 -14.151797 -38.683314 -4.820163 -40.239813 -80.099367 46.817917 5.038769 -5.061422 -43.278256 -9.107239 0.843820 -2.278593 4.409813 -1.117845 0.926383 -133.261845 -65.322753 125.335490 10.675109 -8.030127 -6.735201 -19.834673 -35.566380 5.266609 12.819399 88.350375 10.638966 2.176501 -19.801917 -1.405753 -0.013133 0.540563 0.007283 -12.178503 -47.556476 9.582715 -176.360064 81.133330 177.301086 -2.944883 -17.997278 5.673579 -0.017181 -0.539212 0.000985
-11.158964 55.758157 21.940157 -173.186745 -29.437513 -9.417213 -1.296047 11.578751 4.057189 -0.714066 6.612938 1.927633 -0.845354 8.255232 2.409726 -0.720629 6.661412 1.916512 6.399119 19.184882 2.509751 6.327341 -5.245125 1.235014 5.157253 0.360553 -4.731375 -14.144646 -38.376280 -4.824868 -40.034453 -80.180636 46.880908 5.136853 -4.728118 -42.669806 -9.110184 0.870670 -2.277113 4.415347 -1.129565 0.925798 -133.327718 -65.299451 125.415015 10.685802 -7.954209 -6.779791 -19.767279 -35.530940 5.260257 12.173093 88.343238 9.962165 2.213265 -19.790756 -1.361011 -0.062552 0.539290 0.010526 -12.072308 -47.524752 9.536533 -176.304958 81.126442 177.376876 -2.966628 -18.002787 5.719829 -0.011498 -0.538277 0.001919
-11.181277 55.757996 21.940541 -173.188613 -29.468887 -9.421724 -1.301179 11.604419 4.053956 -0.707028 6.625524 1.928811 -0.860159 8.323469 2.383360 -0.705613 6.645566 1.925268 6.335142 19.253458 2.491250 6.261374 -5.171967 1.229570 5.080502 0.425903 -4.694290 -14.158964 -38.056326 -4.828997 -40.136774 -80.199273 47.293178 5.239828 -4.382249 -42.054966 -9.118078 0.908530 -2.278692 4.415891 -1.137844 0.926153 -133.370591 -65.349391 125.456511 10.643425 -7.942328 -6.802435 -19.692348 -35.503752 5.262990 10.598258 88.340188 8.381370 2.118187 -19.780715 -1.298030 -0.023781 0.536394 0.029362 -11.997387 -47.498668 9.501298 -176.273046 81.122296 177.412248 -2.987851 -18.005246 5.760910 -0.007987 -0.537727 0.006391
-11.205001 55.756593 21.944683 -173.187730 -29.481174 -9.426571 -1.317392 11.607947 4.033569 -0.707989 6.665551 1.918524 -0.840063 8.314628 2.403231 -0.704527 6.655852 1.923749 6.259189 19.360018 2.463666 6.192388 -5.093866 1.220872 4.990580 0.522817 -4.664900 -14.198547 -37.728726 -4.823628 -40.467448 -80.157538 47.977734 5.334644 -4.027117 -41.439046 -9.134904 0.971691 -2.297924 4.416763 -1.141702 0.926356 -133.414911 -65.398417 125.498071 10.602200 -7.940697 -6.813932 -19.637651 -35.495851 5.263884 9.223312 88.332454 6.982759 2.102832 -19.768893 -1.233177 -0.059608 0.538880 0.026067 -11.950407 -47.492293 9.481610 -176.245387 81.120442 177.431957 -3.007393 -18.004700 5.802995 -0.004936 -0.534792 0.007971
-11.227992 55.758116 21.945875 -173.200770 -29.523049 -9.440308 -1.309090 11.645087 4.034303 -0.700504 6.689336 1.921121 -0.836953 8.316227 2.406038 -0.702717 6.666596 1.922647 6.185845 19.479831 2.434747 6.120801 -5.006701 1.207736 4.897636 0.620302 -4.636001 -14.255513 -37.394925 -4.815379 -40.905814 -80.066161 48.806720 5.413085 -3.670167 -40.823652 -9.139250 0.987857 -2.301307 4.403625 -1.095691 0.910233 -133.457365 -65.418771 125.548026 10.583186 -7.930164 -6.825371 -19.564432 -35.452436 5.268161 7.729544 88.316548 5.464640 2.106508 -19.753758 -1.169533 -0.045327 0.541488 0.021444 -11.900248 -47.451598 9.473746 -176.230735 81.115612 177.443251 -3.024382 -18.008817 5.836687 0.000810 -0.534565 0.009494
-11.252608 55.762439 21.943934 -173.202318 -29.592735 -9.460538 -1.295936 11.714250 4.043215 -0.698087 6.712999 1.920306 -0.838540 8.394634 2.391563 -0.698130 6.713073 1.920262 6.123407 19.498179 2.410201 6.048056 -4.909021 1.190541 4.809560 0.603783 -4.598602 -14.312023 -37.052740 -4.815958 -41.330556 -79.947831 49.643871 5.471802 -3.314968 -40.209088 -9.158756 0.963883 -2.299560 4.403390 -1.123248 0.917700 -133.479701 -65.433675 125.585235 10.565246 -7.922968 -6.835797 -19.484272 -35.376250 5.242394 6.920478 88.294684 4.659391 2.069277 -19.738822 -1.119494 -0.043654 0.540960 0.021437 -11.871829 -47.375676 9.466681 -176.243349 81.112665 177.416191 -3.034229 -18.017634 5.864762 0.004939 -0.533783 0.008656
-11.280433 55.762233 21.951132 -173.199549 -29.605974 -9.464585 -1.295241 11.728783 4.035252 -0.697161 6.738209 1.920134 -0.836138 8.396200 2.397015 -0.700247 6.768075 1.914159 6.050331 19.593948 2.374203 5.976730 -4.805257 1.168518 4.715200 0.667797 -4.572497 -14.356660 -36.708895 -4.836075 -41.666839 -79.822143 50.401515 5.518969 -2.960490 -39.587756 -9.183248 1.003963 -2.327272 4.396544 -1.152068 0.928994 -133.502807 -65.418943 125.634566 10.557726 -7.890569 -6.849108 -19.417407 -35.368199 5.215786 6.225414 88.278036 3.965913 2.049616 -19.719720 -1.090921 -0.063130 0.542499 0.040031 -11.850892 -47.363930 9.475970 -176.054266 81.116884 177.560950 -3.042077 -18.010762 5.925290 0.003323 -0.532603 0.008268
-11.307808 55.765160 21.955335 -173.184253 -29.645587 -9.486407 -1.296935 11.771789 4.038485 -0.697614 6.750380 1.925635 -0.838097 8.458877 2.388916 -0.699623 6.781137 1.917393 5.976934 19.688926 2.333540 5.906163 -4.702215 1.141522 4.628848 0.750370 -4.549539 -14.377055 -36.371890 -4.885379 -41.841500 -79.707951 50.988462 5.567687 -2.603628 -38.928945 -9.191939 1.016187 -2.347243 4.372813 -1.155541 0.935593 -133.491740 -65.422088 125.650745 10.532278 -7.871041 -6.861250 -19.390785 -35.319843 5.224485 5.125564 88.253148 2.818577 2.033400 -19.698390 -1.028462 -0.038760 0.540927 0.041670 -11.785369 -47.328495 9.445807 -175.964507 81.118578 177.658165 -3.064298 -18.002723 5.971063 0.014340 -0.534981 0.014762
-11.336415 55.769241 21.959875 -173.168124 -29.690827 -9.506996 -1.298866 11.820799 4.040173 -0.698342 6.763151 1.930562 -0.838796 8.526320 2.382314 -0.697417 6.793889 1.921071 5.899881 19.780674 2.288961 5.832444 -4.602948 1.111146 4.546739 0.847706 -4.530159 -14.365718 -36.034845 -4.961449 -41.769726 -79.630479 51.311469 5.630824 -2.237398 -38.194277 -9.200982 1.027149 -2.364860 4.342066 -1.158899 0.942228 -133.453810 -65.444085 125.642206 10.491020 -7.863669 -6.875543 -19.361455 -35.265712 5.228645 4.159740 88.226976 1.804345 2.010747 -19.675317 -0.964574 -0.053681 0.540262 0.036845 -11.775332 -47.280839 9.433279 -175.956292 81.123465 177.651308 -3.073864 -17.998868 5.997467 0.017082 -0.534088 0.017093
